<mxfile host="app.diagrams.net" agent="Mozilla/5.0 (Windows NT 10.0; Win64; x64) AppleWebKit/537.36 (KHTML, like Gecko) Chrome/130.0.0.0 Safari/537.36" version="24.8.6">
  <diagram name="Página-1" id="_ayOQ-cOEasWMoiUIuIs">
    <mxGraphModel dx="1434" dy="772" grid="1" gridSize="10" guides="1" tooltips="1" connect="1" arrows="1" fold="1" page="1" pageScale="1" pageWidth="827" pageHeight="1169" math="0" shadow="0">
      <root>
        <mxCell id="0" />
        <mxCell id="1" parent="0" />
        <mxCell id="QJAWIdMAuFhCuyB5oaTu-1" value="" style="rounded=1;whiteSpace=wrap;html=1;" vertex="1" parent="1">
          <mxGeometry x="320" y="150" width="230" height="510" as="geometry" />
        </mxCell>
        <mxCell id="QJAWIdMAuFhCuyB5oaTu-2" value="Sistema&lt;div&gt;Elevador&lt;/div&gt;" style="text;html=1;align=center;verticalAlign=middle;resizable=0;points=[];autosize=1;strokeColor=none;fillColor=none;" vertex="1" parent="1">
          <mxGeometry x="400" y="155" width="70" height="40" as="geometry" />
        </mxCell>
        <mxCell id="QJAWIdMAuFhCuyB5oaTu-3" value="UC_01&lt;div&gt;Ir para andares&lt;/div&gt;" style="rounded=0;whiteSpace=wrap;html=1;" vertex="1" parent="1">
          <mxGeometry x="386.25" y="220" width="97.5" height="60" as="geometry" />
        </mxCell>
        <mxCell id="QJAWIdMAuFhCuyB5oaTu-13" style="edgeStyle=orthogonalEdgeStyle;rounded=0;orthogonalLoop=1;jettySize=auto;html=1;entryX=0;entryY=0.5;entryDx=0;entryDy=0;" edge="1" parent="1" source="QJAWIdMAuFhCuyB5oaTu-4" target="QJAWIdMAuFhCuyB5oaTu-3">
          <mxGeometry relative="1" as="geometry" />
        </mxCell>
        <mxCell id="QJAWIdMAuFhCuyB5oaTu-14" style="edgeStyle=orthogonalEdgeStyle;rounded=0;orthogonalLoop=1;jettySize=auto;html=1;entryX=0;entryY=0.5;entryDx=0;entryDy=0;" edge="1" parent="1" source="QJAWIdMAuFhCuyB5oaTu-4" target="QJAWIdMAuFhCuyB5oaTu-10">
          <mxGeometry relative="1" as="geometry">
            <Array as="points">
              <mxPoint x="298" y="270" />
              <mxPoint x="298" y="420" />
            </Array>
          </mxGeometry>
        </mxCell>
        <mxCell id="QJAWIdMAuFhCuyB5oaTu-4" value="Hóspede" style="shape=umlActor;verticalLabelPosition=bottom;verticalAlign=top;html=1;outlineConnect=0;" vertex="1" parent="1">
          <mxGeometry x="180" y="220" width="30" height="60" as="geometry" />
        </mxCell>
        <mxCell id="QJAWIdMAuFhCuyB5oaTu-15" style="edgeStyle=orthogonalEdgeStyle;rounded=0;orthogonalLoop=1;jettySize=auto;html=1;entryX=0;entryY=0.5;entryDx=0;entryDy=0;" edge="1" parent="1" target="QJAWIdMAuFhCuyB5oaTu-9">
          <mxGeometry relative="1" as="geometry">
            <mxPoint x="220" y="520" as="sourcePoint" />
            <Array as="points">
              <mxPoint x="250" y="520" />
              <mxPoint x="250" y="330" />
            </Array>
          </mxGeometry>
        </mxCell>
        <mxCell id="QJAWIdMAuFhCuyB5oaTu-16" style="edgeStyle=orthogonalEdgeStyle;rounded=0;orthogonalLoop=1;jettySize=auto;html=1;entryX=0;entryY=0.75;entryDx=0;entryDy=0;" edge="1" parent="1" source="QJAWIdMAuFhCuyB5oaTu-5" target="QJAWIdMAuFhCuyB5oaTu-10">
          <mxGeometry relative="1" as="geometry">
            <Array as="points">
              <mxPoint x="290" y="530" />
              <mxPoint x="290" y="435" />
            </Array>
          </mxGeometry>
        </mxCell>
        <mxCell id="QJAWIdMAuFhCuyB5oaTu-17" style="edgeStyle=orthogonalEdgeStyle;rounded=0;orthogonalLoop=1;jettySize=auto;html=1;entryX=0;entryY=0.5;entryDx=0;entryDy=0;" edge="1" parent="1" source="QJAWIdMAuFhCuyB5oaTu-5" target="QJAWIdMAuFhCuyB5oaTu-11">
          <mxGeometry relative="1" as="geometry">
            <Array as="points">
              <mxPoint x="298" y="540" />
              <mxPoint x="298" y="500" />
            </Array>
          </mxGeometry>
        </mxCell>
        <mxCell id="QJAWIdMAuFhCuyB5oaTu-18" style="edgeStyle=orthogonalEdgeStyle;rounded=0;orthogonalLoop=1;jettySize=auto;html=1;entryX=0;entryY=0.5;entryDx=0;entryDy=0;" edge="1" parent="1" source="QJAWIdMAuFhCuyB5oaTu-5" target="QJAWIdMAuFhCuyB5oaTu-12">
          <mxGeometry relative="1" as="geometry">
            <Array as="points">
              <mxPoint x="298" y="550" />
              <mxPoint x="298" y="590" />
            </Array>
          </mxGeometry>
        </mxCell>
        <mxCell id="QJAWIdMAuFhCuyB5oaTu-5" value="Usuário" style="shape=umlActor;verticalLabelPosition=bottom;verticalAlign=top;html=1;outlineConnect=0;" vertex="1" parent="1">
          <mxGeometry x="180" y="500" width="30" height="60" as="geometry" />
        </mxCell>
        <mxCell id="QJAWIdMAuFhCuyB5oaTu-19" style="edgeStyle=orthogonalEdgeStyle;rounded=0;orthogonalLoop=1;jettySize=auto;html=1;entryX=1;entryY=0.25;entryDx=0;entryDy=0;" edge="1" parent="1" source="QJAWIdMAuFhCuyB5oaTu-6" target="QJAWIdMAuFhCuyB5oaTu-3">
          <mxGeometry relative="1" as="geometry" />
        </mxCell>
        <mxCell id="QJAWIdMAuFhCuyB5oaTu-20" style="edgeStyle=orthogonalEdgeStyle;rounded=0;orthogonalLoop=1;jettySize=auto;html=1;entryX=1;entryY=0.25;entryDx=0;entryDy=0;" edge="1" parent="1" source="QJAWIdMAuFhCuyB5oaTu-6" target="QJAWIdMAuFhCuyB5oaTu-9">
          <mxGeometry relative="1" as="geometry">
            <Array as="points">
              <mxPoint x="560" y="410" />
              <mxPoint x="560" y="315" />
            </Array>
          </mxGeometry>
        </mxCell>
        <mxCell id="QJAWIdMAuFhCuyB5oaTu-21" style="edgeStyle=orthogonalEdgeStyle;rounded=0;orthogonalLoop=1;jettySize=auto;html=1;entryX=1;entryY=0.5;entryDx=0;entryDy=0;" edge="1" parent="1" source="QJAWIdMAuFhCuyB5oaTu-6" target="QJAWIdMAuFhCuyB5oaTu-10">
          <mxGeometry relative="1" as="geometry">
            <Array as="points">
              <mxPoint x="600" y="420" />
              <mxPoint x="600" y="420" />
            </Array>
          </mxGeometry>
        </mxCell>
        <mxCell id="QJAWIdMAuFhCuyB5oaTu-6" value="Elevador" style="shape=umlActor;verticalLabelPosition=bottom;verticalAlign=top;html=1;outlineConnect=0;" vertex="1" parent="1">
          <mxGeometry x="650" y="375" width="30" height="60" as="geometry" />
        </mxCell>
        <mxCell id="QJAWIdMAuFhCuyB5oaTu-9" value="UC_02&lt;div&gt;Cadastrar / Configurar&lt;/div&gt;&lt;div&gt;Elevadores&lt;/div&gt;" style="rounded=0;whiteSpace=wrap;html=1;" vertex="1" parent="1">
          <mxGeometry x="386.25" y="300" width="97.5" height="60" as="geometry" />
        </mxCell>
        <mxCell id="QJAWIdMAuFhCuyB5oaTu-10" value="UC_03&lt;div&gt;Acionar&lt;/div&gt;&lt;div&gt;Emergência&lt;/div&gt;" style="rounded=0;whiteSpace=wrap;html=1;" vertex="1" parent="1">
          <mxGeometry x="386.25" y="390" width="97.5" height="60" as="geometry" />
        </mxCell>
        <mxCell id="QJAWIdMAuFhCuyB5oaTu-11" value="UC_04&lt;div&gt;Gerenciar&lt;/div&gt;&lt;div&gt;Usuários&lt;/div&gt;" style="rounded=0;whiteSpace=wrap;html=1;" vertex="1" parent="1">
          <mxGeometry x="386.25" y="470" width="97.5" height="60" as="geometry" />
        </mxCell>
        <mxCell id="QJAWIdMAuFhCuyB5oaTu-12" value="UC_05&lt;div&gt;Visualizar&lt;/div&gt;&lt;div&gt;Logs&lt;/div&gt;" style="rounded=0;whiteSpace=wrap;html=1;" vertex="1" parent="1">
          <mxGeometry x="386.25" y="560" width="97.5" height="60" as="geometry" />
        </mxCell>
      </root>
    </mxGraphModel>
  </diagram>
</mxfile>
